<svg width="66" height="66" viewBox="0 0 66 66" fill="none" xmlns="http://www.w3.org/2000/svg">
<path d="M33.4722 65.8616C51.3966 65.8616 65.9722 51.286 65.9722 33.3616C65.9722 15.4372 51.3966 0.861572 33.4722 0.861572C15.5478 0.861572 0.972229 15.4372 0.972229 33.3616C0.972229 51.286 15.5478 65.8616 33.4722 65.8616ZM35.5468 61.3671V49.2661H44.8387C44.2628 50.9649 43.6029 52.5358 42.8722 53.9338C40.7503 57.9932 38.1774 60.4999 35.5468 61.3671ZM31.3976 61.3671C28.7669 60.4999 26.1941 57.9932 24.0723 53.9338C23.3415 52.536 22.6817 50.9649 22.1057 49.2661H31.3976V61.3671ZM44.1902 59.6167C45.0584 58.4668 45.8514 57.2045 46.5672 55.8351C47.6009 53.8574 48.4985 51.6494 49.2248 49.2661H56.9606C53.8433 53.8677 49.4051 57.491 44.1891 59.6167H44.1902ZM22.754 59.6167C17.5385 57.491 13.1003 53.8672 9.98246 49.2661H17.7182C18.4447 51.6494 19.3423 53.8576 20.3759 55.8351C21.0917 57.2045 21.8847 58.4667 22.7529 59.6167H22.754ZM59.2733 45.1164H50.2621C50.8983 42.0777 51.2938 38.8333 51.4072 35.4358H61.736C61.4872 38.8692 60.632 42.1331 59.2727 45.1164H59.2733ZM46.0053 45.1164H35.5467V35.4358H47.259C47.1317 38.8745 46.6933 42.1273 46.006 45.1164H46.0053ZM31.3976 45.1164H20.939C20.2516 42.1273 19.8132 38.8743 19.6859 35.4358H31.3983V45.1164H31.3976ZM16.6813 45.1164H7.67004C6.31077 42.1331 5.45506 38.869 5.20674 35.4358H15.5356C15.6494 38.8335 16.045 42.0777 16.6807 45.1164H16.6813ZM61.7367 31.2866H51.4079C51.2945 27.8937 50.8971 24.6409 50.2628 21.606H59.2951C60.6501 24.5888 61.4908 27.8557 61.7367 31.2866ZM47.2587 31.2866H35.5463V21.606H46.005C46.6904 24.5864 47.1308 27.8552 47.2581 31.2866H47.2587ZM31.3976 31.2866H19.6853C19.8126 27.8552 20.253 24.5863 20.9384 21.606H31.397V31.2866H31.3976ZM15.5366 31.2866H5.20772C5.45372 27.8552 6.29445 24.5883 7.6493 21.606H16.6816C16.0474 24.6414 15.6499 27.8939 15.5366 31.2866ZM56.9618 17.4568H49.226C48.4991 15.0707 47.6028 12.8673 46.5683 10.8878C45.8564 9.52618 45.0749 8.25087 44.213 7.10621C49.4199 9.23341 53.8488 12.8615 56.9624 17.4568H56.9618ZM44.839 17.4568H35.5471V5.35575C38.1778 6.22832 40.7506 8.75146 42.8724 12.8109C43.6032 14.2087 44.263 15.7604 44.839 17.4568ZM31.3981 17.4568H22.1062C22.6822 15.7604 23.342 14.2087 24.0728 12.8109C26.1947 8.75146 28.7675 6.22827 31.3981 5.35575V17.4568ZM17.7202 17.4568H9.98443C13.098 12.861 17.5269 9.23279 22.7338 7.10621C21.8713 8.25081 21.09 9.52618 20.3785 10.8878C19.3439 12.8673 18.4472 15.0707 17.7208 17.4568H17.7202Z" fill="white"/>
</svg>
