<svg width="74" height="19" viewBox="0 0 74 19" fill="none" xmlns="http://www.w3.org/2000/svg">
<g clip-path="url(#clip0_3_9)">
<path d="M8.44502 12.7231L8.93324 10.9291C8.61154 10.3777 8.44253 9.75047 8.44358 9.11203C8.44358 7.11761 10.0603 5.50092 12.0547 5.50092C14.0491 5.50092 15.6658 7.11761 15.6658 9.11203C15.6658 11.1064 14.0491 12.7231 12.0547 12.7231C11.4165 12.7242 10.7896 12.5553 10.2383 12.2338L8.44502 12.7231ZM10.7514 7.41769C10.7048 7.42059 10.6592 7.43287 10.6175 7.4538C10.5783 7.47599 10.5425 7.50372 10.5113 7.53614C10.468 7.57694 10.4434 7.61233 10.417 7.64664C10.2836 7.82033 10.2118 8.03354 10.213 8.25258C10.2137 8.42953 10.26 8.60178 10.3322 8.76283C10.4799 9.08855 10.7229 9.43342 11.0439 9.753C11.1212 9.82992 11.1967 9.90719 11.2779 9.97905C11.6764 10.3299 12.1512 10.5828 12.6646 10.7179L12.8701 10.7493C12.9369 10.7529 13.0037 10.7479 13.0709 10.7446C13.176 10.7392 13.2787 10.7107 13.3717 10.6612C13.419 10.6368 13.4651 10.6103 13.51 10.5817C13.51 10.5817 13.5255 10.5716 13.5551 10.5492C13.6039 10.5131 13.6338 10.4875 13.6743 10.4452C13.7042 10.4142 13.7302 10.3777 13.7501 10.3362C13.7783 10.2773 13.8064 10.165 13.818 10.0715C13.8267 10 13.8241 9.961 13.823 9.9368C13.8216 9.89817 13.7895 9.85808 13.7544 9.84111L13.5443 9.74686C13.5443 9.74686 13.2301 9.61 13.0384 9.52261C13.0181 9.5138 12.9965 9.50878 12.9744 9.5078C12.9497 9.50528 12.9248 9.50806 12.9012 9.51597C12.8777 9.52387 12.8561 9.53673 12.8379 9.55367V9.55294C12.8361 9.55294 12.8119 9.57353 12.5509 9.88986C12.5359 9.91001 12.5152 9.92521 12.4916 9.93359C12.4679 9.94193 12.4423 9.94305 12.418 9.9368C12.3945 9.93052 12.3714 9.92254 12.349 9.91297C12.3042 9.89419 12.2887 9.88697 12.258 9.87361L12.2562 9.87289C12.0496 9.78268 11.8583 9.66084 11.6892 9.51178C11.6437 9.47205 11.6015 9.42872 11.5582 9.38683C11.4161 9.25077 11.2923 9.09686 11.1898 8.92894L11.1685 8.89464C11.1532 8.87158 11.1408 8.84672 11.1317 8.82061C11.118 8.76753 11.1537 8.72492 11.1537 8.72492C11.1537 8.72492 11.2415 8.62886 11.2823 8.57686C11.3162 8.53364 11.3479 8.48868 11.3772 8.44217C11.4199 8.37355 11.4332 8.30314 11.4108 8.24861C11.3097 8.00161 11.205 7.75569 11.0974 7.51158C11.0761 7.46319 11.0129 7.42853 10.9555 7.42167C10.936 7.4195 10.9165 7.41733 10.897 7.41589C10.8485 7.41348 10.7999 7.41432 10.7514 7.41769Z" fill="white"/>
</g>
<rect x="1.04167" y="0.26454" width="71.8611" height="17.6944" rx="8.48611" stroke="white" stroke-width="0.361111"/>
<defs>
<clipPath id="clip0_3_9">
<rect width="7.22222" height="7.22222" fill="white" transform="translate(8.44444 5.50043)"/>
</clipPath>
</defs>
</svg>
