<svg width="16" height="16" viewBox="0 0 16 16" fill="none" xmlns="http://www.w3.org/2000/svg">
<path d="M6.8954 0.450261C6.65923 0.472753 6.30778 0.545854 6.08848 0.618955C5.05382 0.964779 4.23565 1.78295 3.88702 2.8148C3.84203 2.95537 3.80267 3.08189 3.80267 3.09876C3.80267 3.11282 3.932 3.1325 4.08945 3.14375C5.28718 3.2281 6.30778 3.79322 6.94601 4.72948C7.42398 5.43237 7.67421 6.37425 7.5758 7.12494C7.56174 7.24021 7.55331 7.34143 7.55893 7.34705C7.57299 7.36111 8.1578 7.24865 8.17748 7.22897C8.18591 7.22053 8.1353 7.11088 8.06502 6.98155C7.53644 5.99469 7.50551 4.7604 7.98067 3.72575C8.20841 3.23091 8.67794 2.65735 9.1306 2.32277C9.24025 2.24123 9.4708 2.10347 9.64512 2.01631C9.81663 1.92915 9.96002 1.84761 9.96002 1.83637C9.96002 1.79138 9.45956 1.29373 9.26837 1.14753C8.86069 0.84107 8.31525 0.599274 7.82884 0.506492C7.58705 0.461507 7.10346 0.433391 6.8954 0.450261Z" fill="white"/>
<path d="M10.705 1.85326C10.5981 1.87294 10.4576 1.90386 10.3929 1.92073L10.2776 1.95166L10.4266 2.24688C10.9608 3.31528 10.9636 4.51019 10.4295 5.56735C10.0724 6.27305 9.42291 6.90566 8.73688 7.21212C8.62161 7.26554 8.52601 7.32177 8.52601 7.33583C8.52601 7.36957 8.82123 7.71258 8.89152 7.76319C8.9365 7.79411 8.959 7.76881 9.1052 7.53826C9.30763 7.21774 9.79403 6.71728 10.1146 6.50641C11.3966 5.64888 13.0049 5.65169 14.256 6.51485C14.495 6.67792 14.4809 6.68635 14.5821 6.36583C14.7143 5.95534 14.748 5.73042 14.748 5.26932C14.7508 4.66202 14.6468 4.21498 14.3881 3.71171C13.8877 2.73047 12.9346 2.02757 11.8718 1.85326C11.5541 1.80265 10.9805 1.80265 10.705 1.85326Z" fill="white"/>
<path d="M9.7998 2.1456C9.43991 2.31992 9.15595 2.52516 8.84667 2.83444C8.26749 3.41643 7.94416 4.08559 7.84856 4.91219C7.77546 5.55604 7.91323 6.29548 8.2225 6.87186C8.38557 7.18394 8.36871 7.17551 8.62737 7.05742C9.68452 6.56821 10.4577 5.5223 10.6095 4.37799C10.6461 4.09964 10.6292 3.48672 10.5786 3.24493C10.4886 2.80913 10.1737 2.06125 10.0725 2.04157C10.05 2.03876 9.92632 2.08374 9.7998 2.1456Z" fill="white"/>
<path d="M3.73792 3.43053C3.70418 3.63016 3.71824 4.24589 3.76042 4.49893C3.94879 5.5842 4.66293 6.53732 5.64136 7.01248C6.11933 7.24303 6.49046 7.34143 7.0106 7.36955C7.31425 7.38361 7.33674 7.38361 7.35642 7.333C7.36767 7.30488 7.38454 7.1137 7.39297 6.91407C7.43233 5.9244 7.05558 4.99939 6.3302 4.29931C5.71446 3.70607 4.95815 3.38274 4.08094 3.33775L3.75479 3.32088L3.73792 3.43053Z" fill="white"/>
<path d="M3.12785 3.42792C1.98635 3.72313 1.12882 4.47101 0.709899 5.5366C0.226309 6.77932 0.493408 8.17105 1.40717 9.17478L1.57024 9.35472L1.68552 9.16072C1.96948 8.68556 2.4587 8.20197 2.94791 7.90676C3.5777 7.5272 4.4015 7.33882 5.11845 7.4063C5.78198 7.46815 6.45113 7.70995 6.90942 8.05015C6.98814 8.10919 7.06406 8.16261 7.08374 8.17386C7.11185 8.19073 7.24962 7.8674 7.29742 7.65653L7.3171 7.58343L7.01345 7.56375C6.03783 7.49908 5.26184 7.15044 4.58706 6.47848C4.26935 6.16077 4.09503 5.92179 3.90385 5.53098C3.62269 4.96023 3.53553 4.57223 3.53553 3.86934V3.35763H3.46524C3.42588 3.36044 3.27406 3.39137 3.12785 3.42792Z" fill="white"/>
<path d="M11.6159 6.09628C10.5728 6.28184 9.68158 6.90039 9.16143 7.80572L9.08552 7.93505L9.20642 8.03064C10.0583 8.70542 11.3207 8.91629 12.3891 8.55641C12.9683 8.36241 13.4913 8.01377 13.9074 7.54705C14.0508 7.38398 14.3741 6.90882 14.3741 6.85822C14.3741 6.81323 14.0704 6.60236 13.8118 6.46741C13.2467 6.17782 12.898 6.08785 12.2654 6.07098C11.9758 6.06254 11.7593 6.07098 11.6159 6.09628Z" fill="white"/>
<path d="M14.346 7.27419C14.017 7.79152 13.4857 8.26106 12.898 8.55346C12.063 8.96957 11.0565 9.03705 10.1427 8.73621C9.8531 8.64343 9.4651 8.44943 9.21487 8.27511C9.10803 8.20201 9.00963 8.14859 8.99557 8.16265C8.96464 8.19358 8.80719 8.64624 8.80719 8.70529C8.80719 8.75027 8.83531 8.75589 9.0265 8.75589C9.43418 8.75589 9.96275 8.87117 10.3901 9.05392C11.3039 9.44473 12.0433 10.2404 12.3891 11.1963C12.5494 11.6406 12.6309 12.3041 12.5803 12.7343C12.5663 12.858 12.5578 12.962 12.5606 12.9676C12.5635 12.9733 12.6984 12.948 12.8587 12.917C14.4894 12.5853 15.6393 11.171 15.6393 9.50096C15.6393 8.83181 15.42 8.12048 15.0489 7.57503C14.9224 7.39228 14.5765 6.9846 14.5484 6.9846C14.5372 6.98741 14.4472 7.11675 14.346 7.27419Z" fill="white"/>
<path d="M4.38191 7.60601C3.58342 7.71004 2.84679 8.0896 2.27885 8.69409C2.09891 8.88528 1.86555 9.2058 1.76996 9.39136L1.72497 9.48133L1.92741 9.6191C2.36039 9.91712 2.76807 10.0914 3.24322 10.1927C3.62279 10.2714 4.21041 10.277 4.57029 10.2067C5.56277 10.0127 6.45404 9.38574 6.92358 8.54789L7.01917 8.382L6.91795 8.29485C6.7605 8.15989 6.3472 7.92091 6.09697 7.82531C5.53466 7.60882 4.94985 7.53291 4.38191 7.60601Z" fill="white"/>
<path d="M7.1034 8.62074C7.0781 8.67134 7.00218 8.79224 6.9319 8.88784C6.41175 9.62728 5.69761 10.1137 4.80072 10.347C4.41554 10.4483 3.77169 10.4708 3.34995 10.4005C2.8045 10.3105 2.30686 10.1109 1.86544 9.81003L1.6377 9.6554L1.59553 9.75661C1.23846 10.6141 1.28625 11.75 1.71924 12.5935C2.2197 13.5719 3.08004 14.2242 4.16812 14.4548C4.51394 14.525 5.15779 14.5194 5.52892 14.4407C5.68075 14.4098 5.81008 14.376 5.81851 14.3676C5.82695 14.3592 5.7679 14.227 5.68918 14.0752C5.38553 13.4791 5.27588 12.9787 5.30118 12.2589C5.31243 11.8962 5.3293 11.75 5.38553 11.5335C5.55422 10.8897 5.89161 10.2936 6.34709 9.83815C6.65074 9.52887 6.92627 9.33206 7.30302 9.14369C7.45766 9.06778 7.58418 8.99467 7.58418 8.98062C7.58418 8.93563 7.22711 8.53077 7.18775 8.53077C7.16526 8.53077 7.12871 8.57294 7.1034 8.62074Z" fill="white"/>
<path d="M8.34341 8.99468C8.23657 9.01436 8.09318 9.04529 8.02851 9.06216L7.91043 9.0959L8.00321 9.25616C8.49523 10.094 8.60488 11.2468 8.28436 12.2083C8.12973 12.6722 7.84576 13.153 7.49994 13.5298C7.19066 13.8643 6.68458 14.2298 6.31626 14.3817C6.23192 14.4182 6.16444 14.4604 6.16444 14.4773C6.16444 14.4969 6.26565 14.6206 6.39217 14.7556C6.92919 15.3292 7.60678 15.6947 8.38558 15.8296C8.72578 15.8887 9.35557 15.869 9.70702 15.7874C10.857 15.5232 11.8157 14.6712 12.2009 13.5635C12.2487 13.4313 12.2937 13.2908 12.3049 13.2486L12.3218 13.1699H12.1053C10.8176 13.1699 9.54395 12.3798 8.93946 11.2102C8.63581 10.6226 8.5121 10.0631 8.53459 9.37987C8.54022 9.14651 8.54584 8.95251 8.54303 8.95532C8.54303 8.95532 8.45306 8.975 8.34341 8.99468Z" fill="white"/>
<path d="M8.73968 9.0566C8.70032 9.2984 8.72281 9.91132 8.77904 10.1925C9.06301 11.5814 10.1342 12.6498 11.5119 12.9197C11.8324 12.9816 12.3076 12.9984 12.3582 12.9478C12.4144 12.8916 12.4032 12.0256 12.3413 11.7473C12.1923 11.0444 11.8718 10.4455 11.391 9.96474C10.7528 9.32651 9.88118 8.95257 9.02927 8.95257H8.75936L8.73968 9.0566Z" fill="white"/>
<path d="M7.42959 9.28988C7.0922 9.45576 6.83354 9.6357 6.56081 9.89436C5.85511 10.5663 5.48398 11.4182 5.48117 12.3686C5.47836 12.9702 5.59082 13.4594 5.84105 13.9571C6.03786 14.3423 5.9985 14.3254 6.30777 14.1764C7.00223 13.8362 7.55049 13.2992 7.89912 12.6188C8.15779 12.1155 8.27306 11.6291 8.27306 11.0471C8.27306 10.6479 8.22245 10.3217 8.10437 9.95622C8.00877 9.661 7.76979 9.19709 7.71075 9.18304C7.68825 9.18023 7.56173 9.22802 7.42959 9.28988Z" fill="white"/>
</svg>
